<svg width="24" height="17" viewBox="0 0 24 17" fill="none" xmlns="http://www.w3.org/2000/svg">
<path d="M13.5791 9.00171C13.5791 9.39953 13.4211 9.78106 13.1398 10.0624C12.8585 10.3437 12.4769 10.5017 12.0791 10.5017C11.6813 10.5017 11.2997 10.3437 11.0184 10.0624C10.7371 9.78106 10.5791 9.39953 10.5791 9.00171C10.5791 8.60388 10.7371 8.22235 11.0184 7.94105C11.2997 7.65974 11.6813 7.50171 12.0791 7.50171C12.4769 7.50171 12.8585 7.65974 13.1398 7.94105C13.4211 8.22235 13.5791 8.60388 13.5791 9.00171Z" fill="white"/>
<path d="M12.0791 13.5017C13.2726 13.5017 14.4172 13.0276 15.2611 12.1837C16.105 11.3398 16.5791 10.1952 16.5791 9.00171C16.5791 7.80823 16.105 6.66364 15.2611 5.81973C14.4172 4.97581 13.2726 4.50171 12.0791 4.50171C10.8856 4.50171 9.74103 4.97581 8.89712 5.81973C8.05321 6.66364 7.5791 7.80823 7.5791 9.00171C7.5791 10.1952 8.05321 11.3398 8.89712 12.1837C9.74103 13.0276 10.8856 13.5017 12.0791 13.5017ZM12.0791 12.0017C11.2835 12.0017 10.5204 11.6856 9.95778 11.123C9.39517 10.5604 9.0791 9.79736 9.0791 9.00171C9.0791 8.20606 9.39517 7.443 9.95778 6.88039C10.5204 6.31778 11.2835 6.00171 12.0791 6.00171C12.8748 6.00171 13.6378 6.31778 14.2004 6.88039C14.763 7.443 15.0791 8.20606 15.0791 9.00171C15.0791 9.79736 14.763 10.5604 14.2004 11.123C13.6378 11.6856 12.8748 12.0017 12.0791 12.0017Z" fill="white"/>
<path d="M4.2041 0.751709C4.10465 0.751709 4.00926 0.791218 3.93894 0.861544C3.86861 0.93187 3.8291 1.02725 3.8291 1.12671V1.50171H3.0791C2.48236 1.50171 1.91007 1.73876 1.48811 2.16072C1.06615 2.58268 0.829102 3.15497 0.829102 3.75171V14.2517C0.829102 14.8484 1.06615 15.4207 1.48811 15.8427C1.91007 16.2647 2.48236 16.5017 3.0791 16.5017H21.0791C21.6758 16.5017 22.2481 16.2647 22.6701 15.8427C23.092 15.4207 23.3291 14.8484 23.3291 14.2517V3.75171C23.3291 3.15497 23.092 2.58268 22.6701 2.16072C22.2481 1.73876 21.6758 1.50171 21.0791 1.50171H20.3291V1.12671C20.3291 1.02725 20.2896 0.93187 20.2193 0.861544C20.1489 0.791218 20.0536 0.751709 19.9541 0.751709H16.2041C16.1046 0.751709 16.0093 0.791218 15.9389 0.861544C15.8686 0.93187 15.8291 1.02725 15.8291 1.12671V1.50171H6.8291V1.12671C6.8291 1.02725 6.78959 0.93187 6.71927 0.861544C6.64894 0.791218 6.55356 0.751709 6.4541 0.751709H4.2041ZM2.3291 3.75171C2.3291 3.5528 2.40812 3.36203 2.54877 3.22138C2.68942 3.08073 2.88019 3.00171 3.0791 3.00171H21.0791C21.278 3.00171 21.4688 3.08073 21.6094 3.22138C21.7501 3.36203 21.8291 3.5528 21.8291 3.75171V4.50171H14.7851C15.5613 4.96859 16.2035 5.62837 16.6493 6.4169C17.0951 7.20543 17.3293 8.09589 17.3291 9.00171C17.3293 9.90753 17.0951 10.798 16.6493 11.5865C16.2035 12.375 15.5613 13.0348 14.7851 13.5017H21.8291V14.2517C21.8291 14.4506 21.7501 14.6414 21.6094 14.782C21.4688 14.9227 21.278 15.0017 21.0791 15.0017H3.0791C2.88019 15.0017 2.68942 14.9227 2.54877 14.782C2.40812 14.6414 2.3291 14.4506 2.3291 14.2517V13.5017H9.3731C8.59688 13.0348 7.95466 12.375 7.50887 11.5865C7.06309 10.798 6.82891 9.90753 6.8291 9.00171C6.82891 8.09589 7.06309 7.20543 7.50887 6.4169C7.95466 5.62837 8.59688 4.96859 9.3731 4.50171H2.3291V3.75171Z" fill="white"/>
</svg>
