<svg width="24" height="24" viewBox="0 0 24 24" fill="none" xmlns="http://www.w3.org/2000/svg">
<g clip-path="url(#clip0_132_3086)">
<rect width="24" height="24" rx="12" fill="#64B06F"/>
<path fill-rule="evenodd" clip-rule="evenodd" d="M0 12C0 8.8174 1.26428 5.76516 3.51472 3.51472C5.76516 1.26428 8.8174 0 12 0C15.1826 0 18.2348 1.26428 20.4853 3.51472C22.7357 5.76516 24 8.8174 24 12C24 15.1826 22.7357 18.2348 20.4853 20.4853C18.2348 22.7357 15.1826 24 12 24C8.8174 24 5.76516 22.7357 3.51472 20.4853C1.26428 18.2348 0 15.1826 0 12ZM10.5314 16.483C10.9618 16.8415 11.6026 16.7768 11.9524 16.3394L17.7248 9.12326C18.0005 8.7786 17.9446 8.27569 17.6 7.99997C17.2553 7.72427 16.7525 7.78011 16.4767 8.12469L11.276 14.6235C11.171 14.7547 10.9788 14.7741 10.8497 14.6665L7.52638 11.8975C7.18706 11.6148 6.6828 11.6606 6.40005 11.9999C6.11726 12.3393 6.16314 12.8436 6.50252 13.1264L10.5314 16.483Z" fill="#EFF7F1"/>
</g>
<defs>
<clipPath id="clip0_132_3086">
<rect width="24" height="24" rx="12" fill="white"/>
</clipPath>
</defs>
</svg>
