<svg width="23" height="22" viewBox="0 0 23 22" fill="none" xmlns="http://www.w3.org/2000/svg">
<g clip-path="url(#clip0_229_107)">
<path d="M21.5283 8.81834H21.5833C21.8264 8.81834 22.0596 8.72176 22.2315 8.54986C22.4034 8.37795 22.5 8.14479 22.5 7.90167V6.98501C22.5 6.74189 22.4034 6.50874 22.2315 6.33683C22.0596 6.16492 21.8264 6.06834 21.5833 6.06834H20.3458C20.1316 6.06941 19.9206 6.12052 19.7296 6.2176C19.5386 6.31468 19.3729 6.45505 19.2458 6.62751C19.2323 6.63657 19.2163 6.64141 19.2 6.64141C19.1837 6.64141 19.1677 6.63657 19.1542 6.62751C19.1395 6.62199 19.1262 6.61342 19.1152 6.60235C19.1041 6.59128 19.0955 6.57799 19.09 6.56334L18.65 4.36334C18.5251 3.7405 18.1884 3.18012 17.6971 2.7774C17.2058 2.37469 16.5902 2.15447 15.955 2.15417H7.045C6.40587 2.15572 5.78723 2.37985 5.29541 2.78802C4.80359 3.1962 4.4693 3.76294 4.35 4.39084L3.91 6.59084C3.90448 6.60549 3.89591 6.61878 3.88484 6.62985C3.87378 6.64092 3.86048 6.64949 3.84583 6.65501C3.83227 6.66407 3.81632 6.66891 3.8 6.66891C3.78368 6.66891 3.76773 6.66407 3.75417 6.65501C3.62705 6.48255 3.4614 6.34218 3.27042 6.2451C3.07943 6.14802 2.86841 6.09691 2.65417 6.09584H1.41667C1.17355 6.09584 0.940394 6.19242 0.768485 6.36433C0.596577 6.53624 0.5 6.76939 0.5 7.01251L0.5 7.92917C0.5 8.17229 0.596577 8.40545 0.768485 8.57736C0.940394 8.74926 1.17355 8.84584 1.41667 8.84584H1.47167C1.51744 8.84644 1.56198 8.86072 1.59956 8.88687C1.63714 8.91301 1.66602 8.9498 1.6825 8.99251C1.70516 9.02981 1.71715 9.07261 1.71715 9.11626C1.71715 9.1599 1.70516 9.20271 1.6825 9.24001C0.943098 9.98123 0.519322 10.9799 0.5 12.0267L0.5 15.6933C0.500045 15.9532 0.574244 16.2077 0.713884 16.4269C0.853524 16.6461 1.05281 16.8209 1.28833 16.9308C1.3263 16.9517 1.35814 16.9821 1.38066 17.0191C1.40318 17.0561 1.41559 17.0984 1.41667 17.1417V18.4433C1.41667 18.808 1.56153 19.1578 1.81939 19.4156C2.07726 19.6735 2.42699 19.8183 2.79167 19.8183H4.625C4.98967 19.8183 5.33941 19.6735 5.59727 19.4156C5.85513 19.1578 6 18.808 6 18.4433V17.3067C5.99995 17.245 6.0238 17.1858 6.06653 17.1413C6.10927 17.0969 6.16756 17.0707 6.22917 17.0683H16.7708C16.8324 17.0707 16.8907 17.0969 16.9335 17.1413C16.9762 17.1858 17 17.245 17 17.3067V18.4433C17 18.808 17.1449 19.1578 17.4027 19.4156C17.6606 19.6735 18.0103 19.8183 18.375 19.8183H20.2083C20.573 19.8183 20.9227 19.6735 21.1806 19.4156C21.4385 19.1578 21.5833 18.808 21.5833 18.4433V17.1417C21.5844 17.0984 21.5968 17.0561 21.6193 17.0191C21.6419 16.9821 21.6737 16.9517 21.7117 16.9308C21.9472 16.8209 22.1465 16.6461 22.2861 16.4269C22.4258 16.2077 22.5 15.9532 22.5 15.6933V12.0267C22.4976 10.9755 22.0867 9.96641 21.3542 9.21251C21.3315 9.17521 21.3195 9.1324 21.3195 9.08876C21.3195 9.04511 21.3315 9.00231 21.3542 8.96501C21.3679 8.9275 21.3912 8.89424 21.4217 8.86851C21.4523 8.84279 21.489 8.82549 21.5283 8.81834ZM3.47917 16.1517H1.875C1.75344 16.1517 1.63686 16.1034 1.55091 16.0174C1.46496 15.9315 1.41667 15.8149 1.41667 15.6933V15.235C1.41667 15.1135 1.46496 14.9969 1.55091 14.9109C1.63686 14.825 1.75344 14.7767 1.875 14.7767H3.47917C3.66234 14.7791 3.83719 14.8535 3.96587 14.9839C4.09454 15.1143 4.16668 15.2902 4.16667 15.4733C4.16426 15.6541 4.09076 15.8266 3.96209 15.9536C3.83342 16.0805 3.65993 16.1517 3.47917 16.1517ZM5.4225 12.4025C5.40212 12.4291 5.37568 12.4505 5.34539 12.4648C5.3151 12.4792 5.28183 12.4861 5.24833 12.485H4.16667C3.72317 12.4897 3.29301 12.3334 2.95591 12.0452C2.61881 11.757 2.39762 11.3563 2.33333 10.9175C2.32874 10.8848 2.33128 10.8515 2.34078 10.8198C2.35027 10.7882 2.36649 10.759 2.38833 10.7342C2.43347 10.6851 2.49593 10.6555 2.5625 10.6517H4.625C4.75472 10.658 4.87922 10.7047 4.98111 10.7852C5.083 10.8658 5.1572 10.9761 5.19333 11.1008L5.46833 12.2008C5.47704 12.2357 5.47742 12.2721 5.46946 12.3071C5.4615 12.3422 5.44541 12.3748 5.4225 12.4025ZM15.1667 12.1733L14.6717 13.6767C14.5194 14.1319 14.2275 14.5275 13.8375 14.8072C13.4474 15.087 12.9791 15.2367 12.4992 15.235H10.5283C10.0484 15.2367 9.58006 15.087 9.19004 14.8072C8.80002 14.5275 8.50811 14.1319 8.35583 13.6767L7.83333 12.1733C7.80775 12.1054 7.79939 12.0322 7.80898 11.9602C7.81858 11.8882 7.84584 11.8197 7.88833 11.7608C7.93198 11.702 7.98859 11.6541 8.05377 11.6207C8.11895 11.5873 8.19094 11.5694 8.26417 11.5683H14.6808C14.7541 11.5694 14.8261 11.5873 14.8912 11.6207C14.9564 11.6541 15.013 11.702 15.0567 11.7608C15.1085 11.8146 15.1458 11.8807 15.165 11.9529C15.1843 12.025 15.1848 12.1009 15.1667 12.1733ZM17.4125 7.81917C17.3912 7.84475 17.3646 7.86538 17.3345 7.87962C17.3044 7.89387 17.2716 7.9014 17.2383 7.90167H5.78917C5.75589 7.9014 5.72307 7.89387 5.69299 7.87962C5.66291 7.86538 5.6363 7.84475 5.615 7.81917C5.59976 7.79103 5.59177 7.75952 5.59177 7.72751C5.59177 7.6955 5.59976 7.66399 5.615 7.63584L6.1925 4.74834C6.23536 4.53817 6.35056 4.34969 6.51805 4.21569C6.68554 4.0817 6.89472 4.01068 7.10917 4.01501H16.0192C16.2336 4.01068 16.4428 4.0817 16.6103 4.21569C16.7778 4.34969 16.893 4.53817 16.9358 4.74834L17.5133 7.63584C17.5137 7.67596 17.5016 7.7152 17.4785 7.74807C17.4555 7.78094 17.4228 7.8058 17.385 7.81917H17.4125ZM17.7792 12.485C17.7457 12.4861 17.7124 12.4792 17.6821 12.4648C17.6518 12.4505 17.6254 12.4291 17.605 12.4025C17.5821 12.3748 17.566 12.3422 17.558 12.3071C17.5501 12.2721 17.5505 12.2357 17.5592 12.2008L17.8342 11.1008C17.8703 10.9761 17.9445 10.8658 18.0464 10.7852C18.1483 10.7047 18.2728 10.658 18.4025 10.6517H20.4467C20.5132 10.6555 20.5757 10.6851 20.6208 10.7342C20.6427 10.759 20.6589 10.7882 20.6684 10.8198C20.6779 10.8515 20.6804 10.8848 20.6758 10.9175C20.6115 11.3563 20.3904 11.757 20.0533 12.0452C19.7162 12.3334 19.286 12.4897 18.8425 12.485H17.7792ZM21.6108 15.235V15.6933C21.6108 15.8149 21.5625 15.9315 21.4766 16.0174C21.3906 16.1034 21.2741 16.1517 21.1525 16.1517H19.5208C19.3401 16.1517 19.1666 16.0805 19.0379 15.9536C18.9092 15.8266 18.8357 15.6541 18.8333 15.4733C18.8333 15.2902 18.9055 15.1143 19.0341 14.9839C19.1628 14.8535 19.3377 14.7791 19.5208 14.7767H21.125C21.2466 14.7767 21.3631 14.825 21.4491 14.9109C21.535 14.9969 21.5833 15.1135 21.5833 15.235H21.6108Z" fill="#05073D"/>
</g>
<defs>
<clipPath id="clip0_229_107">
<rect width="22" height="22" fill="white" transform="translate(0.5)"/>
</clipPath>
</defs>
</svg>
