<svg width="25" height="24" viewBox="0 0 25 24" fill="none" xmlns="http://www.w3.org/2000/svg">
<path fill-rule="evenodd" clip-rule="evenodd" d="M0.5 12C0.5 8.8174 1.76428 5.76516 4.01472 3.51472C6.26516 1.26428 9.3174 0 12.5 0C15.6826 0 18.7348 1.26428 20.9853 3.51472C23.2357 5.76516 24.5 8.8174 24.5 12C24.5 15.1826 23.2357 18.2348 20.9853 20.4853C18.7348 22.7357 15.6826 24 12.5 24C9.3174 24 6.26516 22.7357 4.01472 20.4853C1.76428 18.2348 0.5 15.1826 0.5 12Z" fill="#FFE5E5"/>
<path d="M12.5002 12L7.7002 7.19995L12.5002 12ZM12.5002 12L17.3002 16.8L12.5002 12ZM12.5002 12L17.3002 7.19995L12.5002 12ZM12.5002 12L7.7002 16.8L12.5002 12Z" fill="#FF0000"/>
<path d="M12.5002 12L7.7002 7.19995M12.5002 12L17.3002 16.8M12.5002 12L17.3002 7.19995M12.5002 12L7.7002 16.8" stroke="#FF0000" stroke-width="1.33333" stroke-linecap="round" stroke-linejoin="round"/>
</svg>
