<svg width="24" height="24" viewBox="0 0 24 24" fill="none" xmlns="http://www.w3.org/2000/svg">
<path d="M11.5781 1.18744C11.548 1.18963 11.5178 1.192 11.4874 1.19456C10.1634 3.65297 9.9915 6.28472 10.1709 9.06656C10.3477 11.805 10.8701 14.6701 10.9179 17.5781H13.0821C13.1299 14.6701 13.6524 11.805 13.8291 9.06656C14.0085 6.28467 13.8366 3.65297 12.5126 1.19456C12.4824 1.19201 12.4521 1.18964 12.4219 1.18744V16.5H11.5781V1.18744ZM10.4627 1.35197C10.1248 1.42542 9.78014 1.52049 9.4365 1.6351L9.32409 1.7701C7.49634 3.96338 6.99239 5.68945 7.16995 7.55372C7.34747 9.41803 8.26073 11.4544 9.38761 14.0839L9.5962 14.621C9.6383 14.7704 9.79903 15.0494 9.95217 15.3458C9.77592 13.268 9.462 11.1826 9.32902 9.12094C9.15792 6.46922 9.29395 3.84014 10.4627 1.35197H10.4627ZM13.5373 1.35197C14.706 3.8401 14.842 6.46922 14.6709 9.12094C14.538 11.1826 14.224 13.268 14.0478 15.3458C14.2009 15.0494 14.3617 14.7704 14.4038 14.621L14.6124 14.0838C15.7393 11.4544 16.6525 9.41803 16.83 7.55372C17.0077 5.6895 16.5037 3.96342 14.676 1.7701L14.5635 1.6351C14.2199 1.52049 13.8752 1.42542 13.5374 1.35197H13.5373ZM7.85156 2.31666C7.68078 2.40819 7.51304 2.50527 7.34859 2.60775C5.91825 3.5018 4.92188 4.71094 4.92188 6C4.92188 8.89453 5.95561 10.2372 7.25498 11.7222C7.38661 11.8727 7.52227 12.0255 7.65848 12.1797C6.97983 10.5396 6.46809 9.08255 6.33005 7.63378C6.16425 5.89228 6.57628 4.18542 7.85161 2.31666H7.85156ZM16.1484 2.31666C17.4238 4.18542 17.8358 5.89228 17.67 7.63378C17.532 9.08255 17.0202 10.5396 16.3416 12.1797C16.4777 12.0255 16.6134 11.8727 16.745 11.7222C18.0444 10.2372 19.0781 8.89453 19.0781 6C19.0781 4.71094 18.0818 3.50175 16.6514 2.6078C16.487 2.50529 16.3192 2.40816 16.1484 2.31666ZM10.5 18.4219V20.1563H11.5042V18.4219H10.5ZM12.4957 18.4219V20.1563H13.5V18.4219H12.4957ZM10.5 21V23.0625H13.5V21H10.5Z" fill="#05073D"/>
</svg>
