<svg width="24" height="24" viewBox="0 0 24 24" fill="none" xmlns="http://www.w3.org/2000/svg">
<path d="M9.42843 1.71429C9.2011 1.71429 8.98309 1.80459 8.82234 1.96534C8.6616 2.12608 8.57129 2.3441 8.57129 2.57143V3.42857H8.42043C7.70777 3.42858 7.01532 3.66543 6.45194 4.10189C5.88857 4.53835 5.48622 5.14966 5.30815 5.83972L4.82472 7.71429H3.64272C3.47222 7.71429 3.30871 7.78202 3.18815 7.90258C3.06759 8.02313 2.99986 8.18665 2.99986 8.35714C2.99986 8.52764 3.06759 8.69115 3.18815 8.81171C3.30871 8.93227 3.47222 9 3.64272 9H4.49215L4.24529 9.95743C3.76097 10.1041 3.33671 10.4027 3.03524 10.8092C2.73377 11.2156 2.5711 11.7083 2.57129 12.2143V19.9286C2.57129 20.5537 2.81963 21.1533 3.26168 21.5953C3.70373 22.0374 4.30328 22.2857 4.92843 22.2857H5.78557C6.41073 22.2857 7.01028 22.0374 7.45233 21.5953C7.89438 21.1533 8.14272 20.5537 8.14272 19.9286V19.0714H15.857V19.9286C15.857 20.5537 16.1053 21.1533 16.5474 21.5953C16.9894 22.0374 17.589 22.2857 18.2141 22.2857H19.0713C19.6964 22.2857 20.296 22.0374 20.738 21.5953C21.1801 21.1533 21.4284 20.5537 21.4284 19.9286V12.2143C21.4286 11.7083 21.266 11.2156 20.9645 10.8092C20.663 10.4027 20.2388 10.1041 19.7544 9.95743L19.5067 9H20.357C20.5275 9 20.691 8.93227 20.8116 8.81171C20.9321 8.69115 20.9999 8.52764 20.9999 8.35714C20.9999 8.18665 20.9321 8.02313 20.8116 7.90258C20.691 7.78202 20.5275 7.71429 20.357 7.71429H19.175L18.6916 5.83972C18.5135 5.14966 18.1112 4.53835 17.5478 4.10189C16.9844 3.66543 16.292 3.42858 15.5793 3.42857H15.4284V2.57143C15.4284 2.3441 15.3381 2.12608 15.1774 1.96534C15.0166 1.80459 14.7986 1.71429 14.5713 1.71429H9.42843ZM15.5793 4.71429C16.0068 4.71442 16.4222 4.8566 16.7601 5.1185C17.098 5.3804 17.3394 5.74716 17.4461 6.16114L18.4001 9.85714H5.59958L6.55272 6.16114C6.65954 5.74702 6.90099 5.38015 7.23909 5.11824C7.57719 4.85633 7.99275 4.71423 8.42043 4.71429H15.5793ZM17.1427 19.0714H20.1427V19.9286C20.1427 20.52 19.6627 21 19.0713 21H18.2141C17.6227 21 17.1427 20.52 17.1427 19.9286V19.0714ZM6.857 19.9286C6.857 20.52 6.377 21 5.78557 21H4.92843C4.337 21 3.857 20.52 3.857 19.9286V19.0714H6.857V19.9286ZM5.99986 13.9286C5.99986 13.6444 6.11274 13.3719 6.31367 13.171C6.51461 12.97 6.78713 12.8571 7.07129 12.8571C7.35545 12.8571 7.62797 12.97 7.8289 13.171C8.02984 13.3719 8.14272 13.6444 8.14272 13.9286C8.14272 14.2127 8.02984 14.4853 7.8289 14.6862C7.62797 14.8871 7.35545 15 7.07129 15C6.78713 15 6.51461 14.8871 6.31367 14.6862C6.11274 14.4853 5.99986 14.2127 5.99986 13.9286ZM16.9284 15C16.6443 15 16.3717 14.8871 16.1708 14.6862C15.9699 14.4853 15.857 14.2127 15.857 13.9286C15.857 13.6444 15.9699 13.3719 16.1708 13.171C16.3717 12.97 16.6443 12.8571 16.9284 12.8571C17.2126 12.8571 17.4851 12.97 17.686 13.171C17.887 13.3719 17.9999 13.6444 17.9999 13.9286C17.9999 14.2127 17.887 14.4853 17.686 14.6862C17.4851 14.8871 17.2126 15 16.9284 15ZM13.9284 15C14.0989 15 14.2624 15.0677 14.383 15.1883C14.5036 15.3088 14.5713 15.4724 14.5713 15.6429C14.5713 15.8134 14.5036 15.9769 14.383 16.0974C14.2624 16.218 14.0989 16.2857 13.9284 16.2857H10.0713C9.90079 16.2857 9.73728 16.218 9.61672 16.0974C9.49616 15.9769 9.42843 15.8134 9.42843 15.6429C9.42843 15.4724 9.49616 15.3088 9.61672 15.1883C9.73728 15.0677 9.90079 15 10.0713 15H13.9284Z" fill="#05073D"/>
</svg>
